<?xml version="1.0" encoding="utf-8"?>
<!-- Generator: Adobe Illustrator 18.1.1, SVG Export Plug-In . SVG Version: 6.00 Build 0)  -->
<svg version="1.1" id="Layer_1" xmlns="http://www.w3.org/2000/svg" xmlns:xlink="http://www.w3.org/1999/xlink" x="0px" y="0px"
	 viewBox="0 0 50 50" enable-background="new 0 0 50 50" xml:space="preserve">
<g>
	<polygon points="18.3,26.3 20,26.3 19.1,24.1 	"/>
	<path d="M12,25.2h-1.4v2.1H12c0,0,1.4,0,1.4-1.1C13.4,25.2,12,25.2,12,25.2z"/>
	<path d="M12,21.7h-1.4v2.1H12c0,0,1.4,0,1.4-1C13.4,21.7,12,21.7,12,21.7z"/>
	<path d="M4.8,19.2l-4.3,5.4l4.3,5.4h42.7V19.2H4.8z M14.8,26.3c0,2.4-2.8,2.4-2.8,2.4H9.2v-8.4H12c0,0,2.8,0,2.8,2.4
		c0,1.8-1.4,1.8-1.4,1.8C14.8,24.5,14.8,26.3,14.8,26.3z M21,28.7l-0.4-1.1h-2.8l-0.4,1.1h-1.5l3.3-8.4l3.4,8.4H21z M27.2,27.3
		c0.8,0,1.5-0.3,2-0.8l1,1c-0.8,0.8-1.8,1.2-3,1.2c-2.3,0-4.2-1.9-4.2-4.2c0-2.3,1.9-4.2,4.2-4.2c1.2,0,2.2,0.5,3,1.2l-1,1
		c-0.5-0.5-1.2-0.8-2-0.8c-1.5,0-2.8,1.2-2.8,2.8C24.4,26,25.7,27.3,27.2,27.3z M38.5,28.7h-1.8l-2.6-3.1l-0.8,0.9v2.2h-1.4v-8.4
		h1.4v4.1l3.7-4.1h1.9L35,24.6L38.5,28.7z"/>
	<polygon points="27,5 13.7,5 6.4,18.7 19.7,18.7 	"/>
	<polygon points="5.9,30.4 13.7,45 27,45 19.2,30.4 	"/>
	<polygon points="39.7,18.7 47,5 33.7,5 26.4,18.7 	"/>
	<polygon points="25.9,30.4 33.7,45 47,45 39.2,30.4 	"/>
</g>
</svg>
