<?xml version="1.0" encoding="utf-8"?>
<!-- Generator: Adobe Illustrator 18.1.1, SVG Export Plug-In . SVG Version: 6.00 Build 0)  -->
<svg version="1.1" xmlns="http://www.w3.org/2000/svg" xmlns:xlink="http://www.w3.org/1999/xlink" x="0px" y="0px"
	 viewBox="0 0 50 50" enable-background="new 0 0 50 50" xml:space="preserve">
<g id="Layer_1" display="none">
	<g display="inline">
		<polygon points="40,7.5 40,10 38,10 38,7.5 33,7.5 33,10 31,10 31,7.5 26,7.5 26,10 24,10 24,7.5 19,7.5 19,10 17,10 17,7.5 
			12,7.5 12,10 10,10 10,7.5 5,7.5 5,45 45,45 45,7.5 		"/>
		<rect x="10" y="5" width="2" height="2.5"/>
		<rect x="17" y="5" width="2" height="2.5"/>
		<rect x="24" y="5" width="2" height="2.5"/>
		<rect x="31" y="5" width="2" height="2.5"/>
		<rect x="38" y="5" width="2" height="2.5"/>
	</g>
	<g display="inline">
		<path fill="#FFFFFF" d="M24.9,12.4L24.9,12.4L24.9,12.4l-3.3,0l-8.1,9.2v3.1h8.1V32h3.2h0c0,0,11.4,0,11.4-9.8
			C36.3,12.4,24.9,12.4,24.9,12.4z M21.7,21.4h-3.6l3.6-4V21.4z M24.9,28.7v-13c0,0,8.1,0,8.1,6.5C33.1,28.7,24.9,28.7,24.9,28.7z"
			/>
		<g>
			<path fill="#FFFFFF" d="M19.7,39.7l1.1,1.1c-0.8,0.8-2,1.3-3.2,1.3c-2.5,0-4.6-2-4.6-4.5c0-2.5,2-4.6,4.6-4.6
				c1.3,0,2.4,0.5,3.2,1.3l-1.1,1.1c-0.5-0.5-1.3-0.9-2.1-0.9c-1.7,0-3,1.4-3,3c0,1.7,1.4,3,3,3C18.4,40.6,19.2,40.3,19.7,39.7z"/>
			<path fill="#FFFFFF" d="M27,41h-3.1l-0.5,1.1h-1.6l3.6-9.1l3.6,9.1h-1.6L27,41z M26.4,39.5l-0.9-2.4l-0.9,2.4H26.4z"/>
			<path fill="#FFFFFF" d="M35.6,40.6v1.5h-4.9V33h1.5v7.6H35.6z"/>
		</g>
	</g>
</g>
<g id="Layer_2">
	<g>
		<polygon fill="#FFFEFE" points="21.7,21.4 21.7,17.3 18.1,21.4 		"/>
		<path fill="#FFFEFE" d="M24.9,15.6v13c0,0,8.1,0,8.1-6.5C33.1,15.6,24.9,15.6,24.9,15.6z"/>
		<polygon fill="#FFFEFE" points="24.5,39.5 26.4,39.5 25.4,37.1 		"/>
		<path fill="#FFFEFE" d="M40,7.5V10h-2V7.5h-5V10h-2V7.5h-5V10h-2V7.5h-5V10h-2V7.5h-5V10h-2V7.5H5V45h40V7.5H40z M17.6,40.6
			c0.8,0,1.6-0.3,2.1-0.9l1.1,1.1c-0.8,0.8-2,1.3-3.2,1.3c-2.5,0-4.6-2-4.6-4.5c0-2.5,2-4.6,4.6-4.6c1.3,0,2.4,0.5,3.2,1.3l-1.1,1.1
			c-0.5-0.5-1.3-0.9-2.1-0.9c-1.7,0-3,1.4-3,3C14.6,39.2,15.9,40.6,17.6,40.6z M27.4,42.1L27,41h-3.1l-0.5,1.1h-1.6l3.6-9.1l3.6,9.1
			H27.4z M35.6,42.1h-4.9V33h1.5v7.6h3.4V42.1z M24.9,32L24.9,32h-3.3v-7.3h-8.1v-3.1l8.1-9.2h3.2v0h0c0,0,11.4,0,11.4,9.8
			C36.3,32,24.9,32,24.9,32z"/>
		<rect x="10" y="5" fill="#FFFEFE" width="2" height="2.5"/>
		<rect x="17" y="5" fill="#FFFEFE" width="2" height="2.5"/>
		<rect x="24" y="5" fill="#FFFEFE" width="2" height="2.5"/>
		<rect x="31" y="5" fill="#FFFEFE" width="2" height="2.5"/>
		<rect x="38" y="5" fill="#FFFEFE" width="2" height="2.5"/>
	</g>
</g>
</svg>
