<?xml version="1.0" encoding="utf-8"?>
<!-- Generator: Adobe Illustrator 18.1.1, SVG Export Plug-In . SVG Version: 6.00 Build 0)  -->
<svg version="1.1" xmlns="http://www.w3.org/2000/svg" xmlns:xlink="http://www.w3.org/1999/xlink" x="0px" y="0px"
	 viewBox="0 0 50 50" enable-background="new 0 0 50 50" xml:space="preserve">
<g id="Layer_1" display="none">
	<polygon display="inline" points="11.1,46 50,7.1 42.9,0 4,38.9 0,50 	"/>
	<polygon display="inline" fill="#FFFFFF" points="7.9,42.8 46.8,3.9 46.1,3.2 7.2,42.1 0,50 	"/>
	<polygon display="inline" fill="#FFFFFF" points="6.2,41 45.1,2.1 44.3,1.4 5.5,40.3 0,50 	"/>
	<polygon display="inline" fill="#FFFFFF" points="9.7,44.5 48.6,5.7 47.9,4.9 9,43.8 0,50 	"/>
	<polygon display="inline" points="5.5,48 0,50 2,44.5 	"/>
	
		<rect x="7.4" y="37" transform="matrix(-0.7071 0.7071 -0.7071 -0.7071 43.3899 65.9581)" display="inline" width="1.3" height="10"/>
	
		<rect x="39.5" y="1.4" transform="matrix(-0.7071 0.7071 -0.7071 -0.7071 78.9314 -19.8464)" display="inline" width="8.2" height="10"/>
</g>
<g id="Layer_2">
	<path fill="#FFFFFF" d="M42.9,0l-5.8,5.8l0,0L4,38.9l-2.9,7.9L0,50l0,0l0,0v0h0l0,0l0,0l0,0l0,0l0,0l0,0h0v0l5.5-2l0,0l5.6-2L12,45
		l32.2-32.2L50,7.1L42.9,0z M41,9.7L8.8,41.9l-0.7-0.7L40.3,9L41,9.7z M39.3,7.9L7.1,40.1l-0.7-0.7L38.6,7.2L39.3,7.9z M5.5,40.3
		L5.5,40.3L6.2,41l0,0l-3.1,4.5l-0.4-0.4L5.5,40.3z M7.2,42.1L7.2,42.1l0.7,0.7l0,0l-4,3.6l-0.4-0.4L7.2,42.1z M9.7,44.5l-4.9,2.8
		l-0.4-0.4L9,43.8l0,0L9.7,44.5L9.7,44.5z M10.6,43.6l-0.7-0.7l32.2-32.2l0.7,0.7L10.6,43.6z"/>
</g>
</svg>
