<?xml version="1.0" encoding="utf-8"?>
<!-- Generator: Adobe Illustrator 18.1.1, SVG Export Plug-In . SVG Version: 6.00 Build 0)  -->
<svg version="1.1" id="Layer_1" xmlns="http://www.w3.org/2000/svg" xmlns:xlink="http://www.w3.org/1999/xlink" x="0px" y="0px"
	 viewBox="0 0 50 50" enable-background="new 0 0 50 50" xml:space="preserve">
<circle display="none" cx="81.5" cy="23.9" r="25"/>
<circle display="none" fill="#FFFFFF" cx="81.5" cy="23.9" r="22.5"/>
<ellipse display="none" cx="25" cy="25" rx="25" ry="1.3"/>
<ellipse display="none" fill="#FFFFFF" cx="25" cy="25" rx="22.5" ry="0"/>
<g>
	<g>
		<path fill="#FFFFFF" d="M9.5,20.6C9.5,20.6,9.4,20.6,9.5,20.6L9.5,20.6C9.5,20.7,9.5,20.6,9.5,20.6z"/>
		<path fill="#FFFFFF" d="M40.5,20.7L40.5,20.7C40.5,20.6,40.5,20.6,40.5,20.7C40.5,20.6,40.5,20.7,40.5,20.7z"/>
		<path fill="#FFFFFF" d="M20.5,23.9l-1.7-4.3h-0.3c-0.1,0.9-0.1,1.7-0.1,2.6l2.2,5.6c0-0.9,0-1.8,0-2.8
			C20.5,24.6,20.5,24.3,20.5,23.9z"/>
		<path fill="#FFFFFF" d="M45.2,25.7c-0.2,0.5-0.5,1-0.9,1.5l1.2,2.9l2.2-5.4c0-1.1-0.1-2.1-0.3-3.1l-1.9,4.7L45.2,25.7z"/>
		<path fill="#FFFFFF" d="M42.8,19.6H41l-0.4,1.1c0.5,0.2,0.9,0.4,1.3,0.6l0-0.1l0.1,0.1c0.8,0.4,1.5,0.9,2,1.3L42.8,19.6z"/>
		<path fill="#FFFFFF" d="M38.5,25.7c0,1.4-0.1,2.8-0.4,4.1l0.1,0.3l2.5-6.2c0-1.1-0.1-2.1-0.2-3.2L38.5,25.7z"/>
		<path fill="#FFFFFF" d="M4.7,24.4C4.8,24.2,4.9,24,5,23.8l1.6-4C6.4,19.9,6.2,20,6,20.1c1-1.8,2.6-3.4,4.6-4.7
			c-0.3,0.9-0.6,1.9-0.8,2.9c-0.7,0.2-1.3,0.5-1.9,0.8h1.3l2.1,5.3c0-1.6,0.2-3.1,0.4-4.5c0.6-0.2,1.3-0.3,2-0.5l0.1-0.3h1.3
			c1-0.2,2.1-0.4,3.2-0.5c0,0.2,0,0.3,0,0.5h0.6l1.4,3.6c0-1.5,0.1-2.9,0.2-4.2c1.4-0.1,2.8-0.2,4.3-0.2s2.9,0.1,4.3,0.2
			c0.1,1.3,0.2,2.8,0.2,4.2l1.4-3.5h0.6c0-0.2,0-0.3,0-0.5c1.1,0.1,2.2,0.3,3.2,0.5H36l0.1,0.3c0.7,0.2,1.4,0.3,2,0.5
			c0.3,1.4,0.4,2.9,0.4,4.5l2.1-5.3H42c-0.6-0.3-1.2-0.5-1.9-0.8c-0.2-1-0.5-2-0.8-2.9c2,1.3,3.6,2.9,4.6,4.7
			c-0.2-0.1-0.4-0.2-0.6-0.3l1.6,3.9c0.2,0.3,0.3,0.6,0.4,0.9l0.1,0.3l1.7-4.3C45.1,10.2,36,2.4,25,2.4c-11,0-20.1,7.8-22.2,18.2
			l1.7,4.3L4.7,24.4z M18.7,16.3c-2.3,0.3-4.4,0.7-6.3,1.2c0.4-1.3,0.8-2.6,1.3-3.8c1.7-0.8,3.7-1.4,5.8-1.8
			C19.2,13.3,18.9,14.8,18.7,16.3z M25,16c-1.4,0-2.7,0.1-4.1,0.1c0.2-1.6,0.4-3.1,0.7-4.5c1.1-0.1,2.2-0.2,3.4-0.2s2.3,0.1,3.4,0.2
			c0.3,1.3,0.5,2.9,0.7,4.5C27.7,16,26.4,16,25,16z M31.3,16.3c-0.2-1.6-0.4-3-0.7-4.4c2.1,0.4,4,1,5.8,1.8c0.5,1.2,1,2.4,1.3,3.8
			C35.7,17,33.5,16.6,31.3,16.3z M42.9,15.4c-1.4-1.3-3.1-2.4-5-3.3c-0.9-1.9-2-3.6-3.3-5C38.1,9,41,11.9,42.9,15.4z M34.6,10.7
			c-1.5-0.5-3-0.9-4.7-1.1c-0.5-1.7-1-3.2-1.6-4.3C30.7,6.2,32.9,8.1,34.6,10.7z M25,4.6c1.1,0,2.1,1.7,2.9,4.7
			C26.9,9.2,26,9.2,25,9.2s-1.9,0-2.9,0.1C22.9,6.4,23.9,4.6,25,4.6z M21.7,5.3c-0.6,1.1-1.2,2.6-1.6,4.3c-1.6,0.3-3.2,0.6-4.7,1.1
			C17.1,8.1,19.3,6.2,21.7,5.3z M15.4,7.1c-1.3,1.4-2.4,3.1-3.3,5c-1.9,0.9-3.6,2-5,3.3C9,11.9,11.9,9,15.4,7.1z"/>
		<path fill="#FFFFFF" d="M45.4,31.4l-1.5-3.9c-0.8,0.7-2,1.3-3.4,1.9c0.2-1.4,0.3-2.8,0.3-4.3l-2.5,6.3l-0.4-1.1
			c-1.9,0.5-4,0.9-6.4,1.2c0.2-2,0.3-4.2,0.3-6.4c0-0.5,0-1.1,0-1.6l-2.3,5.8c0,0.8-0.1,1.6-0.1,2.4c-1.4,0.1-2.8,0.2-4.3,0.2
			s-2.9-0.1-4.3-0.2c-0.1-0.8-0.1-1.6-0.1-2.4l-2.3-5.9c0,0.5,0,1,0,1.6c0,2.2,0.1,4.4,0.3,6.4c-2.3-0.3-4.5-0.7-6.4-1.2l-0.5,1.1
			l-2.5-6.3c0,1.5,0.1,2.9,0.3,4.3c-1.4-0.6-2.6-1.2-3.4-1.9l-1.5,3.9l-2.1-5.3C3,38.1,12.9,47.6,25,47.6c12.1,0,22-9.6,22.6-21.6
			L45.4,31.4z M31.3,33.7c2.3-0.3,4.4-0.7,6.3-1.2c-0.4,1.3-0.8,2.6-1.3,3.8c-1.7,0.8-3.7,1.4-5.8,1.8
			C30.8,36.7,31.1,35.2,31.3,33.7z M25,34c1.4,0,2.7-0.1,4.1-0.1c-0.2,1.6-0.4,3.1-0.7,4.5c-1.1,0.1-2.2,0.2-3.4,0.2
			s-2.3-0.1-3.4-0.2c-0.3-1.3-0.5-2.9-0.7-4.5C22.3,34,23.6,34,25,34z M18.7,33.7c0.2,1.6,0.4,3,0.7,4.4c-2.1-0.4-4-1-5.8-1.8
			c-0.5-1.2-1-2.4-1.3-3.8C14.3,33,16.5,33.4,18.7,33.7z M9.9,31.7c0.2,1,0.5,2,0.8,2.9c-2-1.3-3.6-2.9-4.6-4.7
			C7.1,30.6,8.4,31.2,9.9,31.7z M7.1,34.6c1.4,1.3,3.1,2.4,5,3.3c0.9,1.9,2,3.6,3.3,5C11.9,41,9,38.1,7.1,34.6z M15.4,39.3
			c1.5,0.5,3,0.9,4.7,1.1c0.5,1.7,1,3.2,1.6,4.3C19.3,43.8,17.1,41.9,15.4,39.3z M25,45.4c-1.1,0-2.1-1.7-2.9-4.7
			c0.9,0.1,1.9,0.1,2.9,0.1s1.9,0,2.9-0.1C27.1,43.6,26.1,45.4,25,45.4z M28.3,44.7c0.6-1.1,1.2-2.6,1.6-4.3
			c1.6-0.3,3.2-0.6,4.7-1.1C32.9,41.9,30.7,43.8,28.3,44.7z M34.6,42.9c1.3-1.4,2.4-3.1,3.3-5c1.9-0.9,3.6-2,5-3.3
			C41,38.1,38.1,41,34.6,42.9z M39.3,34.6c0.3-0.9,0.6-1.9,0.8-2.9c1.5-0.5,2.8-1.1,3.8-1.8C42.9,31.7,41.3,33.3,39.3,34.6z"/>
		<path fill="#FFFFFF" d="M31.2,19.6l-1.7,4.3c0,0.4,0,0.8,0,1.1c0,0.9,0,1.8,0,2.7l2.2-5.6c0-0.9-0.1-1.7-0.1-2.6H31.2z"/>
		<path fill="#FFFFFF" d="M9.2,23.9l2.5,6.2l0.1-0.3c-0.2-1.3-0.3-2.6-0.4-4l-2-5C9.3,21.7,9.3,22.8,9.2,23.9z"/>
		<path fill="#FFFFFF" d="M8.1,21.1l0,0.1C8.6,21,9,20.8,9.4,20.6L9,19.6H7.2l-1.2,3c0.5-0.5,1.2-0.9,2-1.3L8.1,21.1z"/>
		<path fill="#FFFFFF" d="M5.7,27.1c-0.5-0.5-0.8-1-0.9-1.5l-0.2,0.6l-1.9-4.7c-0.2,1-0.2,2.1-0.3,3.1L4.5,30L5.7,27.1z"/>
	</g>
	<g>
		<path fill="#FFFFFF" d="M11.7,30.7l-3.6-8.9l-3.6,8.9L0,19.3h2.1l2.5,6.3l2.5-6.3h2.1l2.5,6.3l2.5-6.3h2.1L11.7,30.7z"/>
		<path fill="#FFFFFF" d="M28.6,30.7L25,21.8l-3.6,8.9l-4.5-11.4h2.1l2.5,6.3l2.5-6.3h2.1l2.5,6.3l2.5-6.3h2.1L28.6,30.7z"/>
		<path fill="#FFFFFF" d="M45.4,30.7l-3.6-8.9l-3.6,8.9l-4.5-11.4h2.1l2.5,6.3l2.5-6.3h2.1l2.5,6.3l2.5-6.3H50L45.4,30.7z"/>
	</g>
</g>
<g display="none">
	<path display="inline" d="M25,7.5C11.2,7.5,0,15.3,0,25s11.2,17.5,25,17.5S50,34.7,50,25S38.8,7.5,25,7.5z M25,40
		C12.6,40,2.5,33.3,2.5,25c0-8.3,10.1-15,22.5-15s22.5,6.7,22.5,15C47.5,33.3,37.4,40,25,40z"/>
	<path display="inline" d="M25,15C11.2,15,0,19.5,0,25c0,5.5,11.2,10,25,10s25-4.5,25-10C50,19.5,38.8,15,25,15z M25,32.5
		c-12.4,0-22.5-3.4-22.5-7.5s10.1-7.5,22.5-7.5s22.5,3.4,22.5,7.5S37.4,32.5,25,32.5z"/>
	<path display="inline" d="M25,0C11.2,0,0,11.2,0,25s11.2,25,25,25s25-11.2,25-25S38.8,0,25,0z M25,47.5C12.6,47.5,2.5,37.4,2.5,25
		C2.5,12.6,12.6,2.5,25,2.5S47.5,12.6,47.5,25C47.5,37.4,37.4,47.5,25,47.5z"/>
	<path display="inline" d="M25,0C15.3,0,7.5,11.2,7.5,25S15.3,50,25,50s17.5-11.2,17.5-25S34.7,0,25,0z M25,47.5
		c-8.3,0-15-10.1-15-22.5c0-12.4,6.7-22.5,15-22.5S40,12.6,40,25C40,37.4,33.3,47.5,25,47.5z"/>
	<path display="inline" d="M25,0c-4.1,0-7.5,11.2-7.5,25s3.4,25,7.5,25s7.5-11.2,7.5-25S29.1,0,25,0z M25,47.5c-2.8,0-5-10.1-5-22.5
		c0-12.4,2.2-22.5,5-22.5s5,10.1,5,22.5C30,37.4,27.8,47.5,25,47.5z"/>
</g>
</svg>
