<?xml version="1.0" encoding="utf-8"?>
<!-- Generator: Adobe Illustrator 18.1.1, SVG Export Plug-In . SVG Version: 6.00 Build 0)  -->
<svg version="1.1" id="Layer_1" xmlns="http://www.w3.org/2000/svg" xmlns:xlink="http://www.w3.org/1999/xlink" x="0px" y="0px"
	 viewBox="0 0 50 50" enable-background="new 0 0 50 50" xml:space="preserve">
<path d="M25,7.6L25,7.6L25,7.6l-5-0.1L7.5,23.9v5.5h12.4v13.1h0h5h0c0,0,17.5,0,17.5-17.5C42.5,7.6,25,7.6,25,7.6z M14.5,23.6
	l5.4-7.2v7.2H14.5z M25,36.6V13.4c0,0,12.5,0,12.5,11.7C37.5,36.6,25,36.6,25,36.6z" fill="#ffffff"/>
<circle display="none" fill="none" stroke="#000000" stroke-width="3" stroke-miterlimit="10" cx="25" cy="25" r="23.5"/>
<g>
	<path fill="none" stroke="#FFF200" stroke-width="3" stroke-miterlimit="10" d="M25,1.5C38,1.5,48.5,12,48.5,25"/>
	<path fill="none" stroke="#00A651" stroke-width="3" stroke-miterlimit="10" d="M48.5,25C48.5,38,38,48.5,25,48.5"/>
	<path fill="none" stroke="#2E3192" stroke-width="3" stroke-miterlimit="10" d="M25,48.5C12,48.5,1.5,38,1.5,25"/>
	<path fill="none" stroke="#ED1C24" stroke-width="3" stroke-miterlimit="10" d="M1.5,25C1.5,12,12,1.5,25,1.5"/>
	<animateTransform
	   attributeName="transform"
	   attributeType="XML"
	   type="rotate"
	   from="0, 25, 25"
	   to="360, 25, 25"
	   begin="0s"
	   dur="2s"
	   repeatCount="indefinite"/>
</g>
</svg>
