<?xml version="1.0" encoding="utf-8"?>
<!-- Generator: Adobe Illustrator 18.1.1, SVG Export Plug-In . SVG Version: 6.00 Build 0)  -->
<svg version="1.1" id="Layer_1" xmlns="http://www.w3.org/2000/svg" xmlns:xlink="http://www.w3.org/1999/xlink" x="0px" y="0px"
	 viewBox="0 0 50 50" enable-background="new 0 0 50 50" xml:space="preserve">
<g>
	<path fill="#FFFFFF" d="M25,7c-4.4,0-8,3.6-8,8s3.6,8,8,8s8-3.6,8-8S29.4,7,25,7z M25,22.5c-4.1,0-7.5-3.4-7.5-7.5s3.4-7.5,7.5-7.5
		s7.5,3.4,7.5,7.5S29.1,22.5,25,22.5z"/>
	<path fill="#FFFFFF" d="M25,2.5c-6.9,0-12.5,5.6-12.5,12.5S18.1,47.5,25,47.5S37.5,21.9,37.5,15S31.9,2.5,25,2.5z M25,23.5
		c-4.7,0-8.5-3.8-8.5-8.5c0-4.7,3.8-8.5,8.5-8.5s8.5,3.8,8.5,8.5C33.5,19.7,29.7,23.5,25,23.5z"/>
</g>
</svg>
