<?xml version="1.0" encoding="utf-8"?>
<!-- Generator: Adobe Illustrator 18.1.1, SVG Export Plug-In . SVG Version: 6.00 Build 0)  -->
<svg version="1.1" xmlns="http://www.w3.org/2000/svg" xmlns:xlink="http://www.w3.org/1999/xlink" x="0px" y="0px"
	 viewBox="0 0 50 50" enable-background="new 0 0 50 50" xml:space="preserve">
<g id="Layer_1" display="none">
	<polygon display="inline" points="0,0 0,40 10,50 50,50 50,0 	"/>
	<polygon display="inline" fill="#FFFFFF" points="5.6,10.7 3.8,7.5 5.6,4.3 9.4,4.3 11.3,7.5 9.4,10.7 	"/>
	<rect x="17.5" y="32.5" display="inline" fill="#FFFFFF" width="25" height="15"/>
	<rect x="22.5" y="35" display="inline" width="5" height="10"/>
</g>
<g id="Layer_2">
	<g>
		<path fill="#FFFFFF" d="M0,0v40l10,10l40,0V0H0z M9.4,10.7H5.6L3.8,7.5l1.9-3.2h3.8l1.9,3.2L9.4,10.7z M42.5,47.5h-25v-15h25V47.5
			z"/>
		<rect x="22.5" y="35" fill="#FFFFFF" width="5" height="10"/>
	</g>
</g>
</svg>
