<?xml version="1.0" encoding="utf-8"?>
<!-- Generator: Adobe Illustrator 18.1.1, SVG Export Plug-In . SVG Version: 6.00 Build 0)  -->
<svg version="1.1" id="Layer_1" xmlns="http://www.w3.org/2000/svg" xmlns:xlink="http://www.w3.org/1999/xlink" x="0px" y="0px"
	 viewBox="0 0 36.8 50" enable-background="new 0 0 36.8 50" xml:space="preserve">
<g>
	<g display="none">
		<path display="inline" fill="#FFFFFF" d="M37.5,46.7h-0.7H12.5L0,25L12.5,3.3h24.3h0.7L50,25L37.5,46.7z M13.2,45.4h23.6L48.6,25
			L36.8,4.6H13.2L1.4,25L13.2,45.4z"/>
	</g>
	<g>
		<path fill="#FFFFFF" d="M25.9,10.7c0-0.5-0.4-0.9-0.9-0.9s-0.9,0.4-0.9,0.9v1.6h1.8V10.7z"/>
		<path fill="#FFFFFF" d="M24.1,39.3c0,0.5,0.4,0.9,0.9,0.9s0.9-0.4,0.9-0.9V18.2h-1.8V39.3z"/>
		<polygon fill="#FFFFFF" points="27.7,15.3 26.3,13 23.7,13 22.3,15.3 23.7,17.6 26.3,17.6 		"/>
		<path fill="#FFFFFF" d="M16.8,10.7c0-0.5-0.4-0.9-0.9-0.9S15,10.2,15,10.7v16.2h1.8V10.7z"/>
		<path fill="#FFFFFF" d="M15,39.3c0,0.5,0.4,0.9,0.9,0.9s0.9-0.4,0.9-0.9v-6.5H15V39.3z"/>
		<polygon fill="#FFFFFF" points="18.6,29.9 17.2,27.5 14.5,27.5 13.2,29.9 14.5,32.2 17.2,32.2 		"/>
		<path fill="#FFFFFF" d="M33.2,39.3c0,0.5,0.4,0.9,0.9,0.9s0.9-0.4,0.9-0.9V27.9h-1.8C33.2,27.9,33.2,39.3,33.2,39.3z"/>
		<path fill="#FFFFFF" d="M35,10.7c0-0.5-0.4-0.9-0.9-0.9s-0.9,0.4-0.9,0.9V22H35V10.7z"/>
		<polygon fill="#FFFFFF" points="36.8,25 35.5,22.7 32.8,22.7 31.4,25 32.8,27.3 35.5,27.3 		"/>
	</g>
</g>
<g>
	<path fill="#FFFFFF" d="M36.8,46.7H12.5L0,25L12.5,3.3h24.3 M36.8,4.6H13.2L1.4,25l11.8,20.4h23.6"/>
</g>
<g display="none">
	<path display="inline" d="M36.8,3.3h0.7L50,25L37.5,46.7h-0.7 M36.8,45.4L48.6,25L36.8,4.6"/>
</g>
</svg>
