<?xml version="1.0" encoding="utf-8"?>
<!-- Generator: Adobe Illustrator 18.1.1, SVG Export Plug-In . SVG Version: 6.00 Build 0)  -->
<svg version="1.1" xmlns="http://www.w3.org/2000/svg" xmlns:xlink="http://www.w3.org/1999/xlink" x="0px" y="0px"
	 viewBox="0 0 50 50" enable-background="new 0 0 50 50" xml:space="preserve">
<g id="Free" display="none">
	<g display="inline">
		<circle cx="23.1" cy="11.1" r="9.3"/>
		<path d="M41.7,45.8c-5.1,0-9.3-4.1-9.3-9.3c0-3.7,2.1-6.8,5.2-8.3c-4-3.5-9-5.6-14.5-5.6C10.4,22.7,0,34.1,0,48.1h46.3
			c0-1.2-0.1-2.3-0.2-3.4C44.8,45.4,43.3,45.8,41.7,45.8z"/>
		<path d="M41.7,28.2c-4.6,0-8.3,3.7-8.3,8.3c0,4.6,3.7,8.3,8.3,8.3s8.3-3.7,8.3-8.3C50,32,46.3,28.2,41.7,28.2z M46.8,34.8
			l-7.9,7.8l-3.2-3.1v-2.4l3.2,3.1l7.9-7.8V34.8z"/>
	</g>
</g>
<g id="Busy" display="none">
	<g display="inline">
		<circle cx="23.1" cy="11.1" r="9.3"/>
		<path d="M41.7,45.8c-5.1,0-9.3-4.1-9.3-9.3c0-3.7,2.1-6.8,5.2-8.3c-4-3.5-9-5.6-14.5-5.6C10.4,22.7,0,34.1,0,48.1h46.3
			c0-1.2-0.1-2.3-0.2-3.4C44.8,45.4,43.3,45.8,41.7,45.8z"/>
		<path d="M41.7,28.2c-4.6,0-8.3,3.7-8.3,8.3c0,4.6,3.7,8.3,8.3,8.3s8.3-3.7,8.3-8.3C50,32,46.3,28.2,41.7,28.2z M47.2,40.3
			l-1.9,1.9l-3.7-3.7L38,42.1l-1.9-1.9l3.7-3.7l-3.7-3.7L38,31l3.7,3.7l3.7-3.7l1.9,1.9l-3.7,3.7L47.2,40.3z"/>
	</g>
</g>
<g id="Tentative">
	<g>
		<circle fill="#FEEB3F" cx="23.1" cy="11.1" r="9.3"/>
		<path fill="#FEEB3F" d="M41.7,45.8c-5.1,0-9.3-4.1-9.3-9.3c0-3.7,2.1-6.8,5.2-8.3c-4-3.5-9-5.6-14.5-5.6C10.4,22.7,0,34.1,0,48.1
			h46.3c0-1.2-0.1-2.3-0.2-3.4C44.8,45.4,43.3,45.8,41.7,45.8z"/>
		<path fill="#FEEB3F" d="M41.7,28.2c-4.6,0-8.3,3.7-8.3,8.3c0,4.6,3.7,8.3,8.3,8.3s8.3-3.7,8.3-8.3C50,32,46.3,28.2,41.7,28.2z
			 M41.7,43.1c-0.6,0-1.1-0.5-1.1-1.1c0-0.6,0.5-1.1,1.1-1.1c0.6,0,1.1,0.5,1.1,1.1C42.7,42.6,42.3,43.1,41.7,43.1z M42.7,37.5v1.8
			h-2.2v-3.7l1.3-0.1c0.8-0.1,1.4-0.8,1.4-1.6c0-0.9-0.7-1.6-1.6-1.6c-0.9,0-1.6,0.7-1.6,1.6h-2.2c0-2.1,1.7-3.8,3.8-3.8
			c2.1,0,3.8,1.7,3.8,3.8C45.4,35.6,44.3,37,42.7,37.5z"/>
	</g>
</g>
</svg>
