<?xml version="1.0" encoding="utf-8"?>
<!-- Generator: Adobe Illustrator 18.1.1, SVG Export Plug-In . SVG Version: 6.00 Build 0)  -->
<svg version="1.1" id="Layer_1" xmlns="http://www.w3.org/2000/svg" xmlns:xlink="http://www.w3.org/1999/xlink" x="0px" y="0px"
	 viewBox="0 0 50 50" enable-background="new 0 0 50 50" xml:space="preserve">
<path fill="#FFFFFF" d="M25,0C11.2,0,0,11.2,0,25s11.2,25,25,25s25-11.2,25-25S38.8,0,25,0z M25,45C14,45,5,36,5,25C5,14,14,5,25,5
	s20,9,20,20C45,36,36,45,25,45z"/>
<path fill="#FFFFFF" d="M25.5,6.5h-1c-0.6,0-1,0.4-1,1v18.6c0,0.3,0.1,0.5,0.3,0.7l10.1,10.1c0.4,0.4,1,0.4,1.4,0l0.7-0.7
	c0.4-0.4,0.4-1,0-1.4l-9.2-9.2c-0.2-0.2-0.3-0.4-0.3-0.7V7.5C26.5,6.9,26.1,6.5,25.5,6.5z"/>
</svg>
