<?xml version="1.0" encoding="utf-8"?>
<!-- Generator: Adobe Illustrator 18.1.1, SVG Export Plug-In . SVG Version: 6.00 Build 0)  -->
<svg version="1.1" id="Layer_1" xmlns="http://www.w3.org/2000/svg" xmlns:xlink="http://www.w3.org/1999/xlink" x="0px" y="0px"
	 viewBox="0 0 49 50" enable-background="new 0 0 49 50" xml:space="preserve">
<polygon points="8.5,15 13.5,45 18.5,45 16.5,15 "/>
<polygon points="40.5,15 35.5,45 30.5,45 32.5,15 "/>
<polygon points="17.5,15 19.5,45 24,45 24,15 "/>
<path d="M30.2,6.1l0.8-2.9l-7.7-2.1L22.4,4L10.9,0.9L9.6,5.7L40.5,14l1.3-4.8L30.2,6.1z M29.2,5.8l-5.8-1.6l0.5-1.9l5.8,1.6
	L29.2,5.8z"/>
<polygon points="31.5,15 29.5,45 25,45 25,15 "/>
<polygon points="9.6,8.4 8.5,12.6 16.2,13.5 16.1,14.6 21.2,12.2 17.9,8.4 17.1,9.6 "/>
</svg>
